<?xml version="1.0" encoding="UTF-8"?>
<svg version="1.1" xmlns="http://www.w3.org/2000/svg" width="356" height="100">
<path d="M0 0 C4.29 0 8.58 0 13 0 C14.32 4.95 15.64 9.9 17 15 C19.65372045 10.01941932 19.65372045 10.01941932 22 0 C30.58 0 39.16 0 48 0 C48 11.22 48 22.44 48 34 C43.71 34 39.42 34 35 34 C34.67 24.43 34.34 14.86 34 5 C30.37 14.57 26.74 24.14 23 34 C19.37 34 15.74 34 12 34 C0 4.26213592 0 4.26213592 0 0 Z " fill="#FBC700" transform="translate(135,0)"/>
<path d="M0 0 C22 0 22 0 28 5 C31.8126048 10.30014569 32.96853966 15.5669835 32 22 C30.17465409 27.27322153 27.39280797 29.79691086 23 33 C20.11734851 33.96088383 18.32337729 34.11670941 15.33203125 34.09765625 C14.52741455 34.09515869 13.72279785 34.09266113 12.89379883 34.09008789 C11.36855591 34.07643188 11.36855591 34.07643188 9.8125 34.0625 C4.9553125 34.0315625 4.9553125 34.0315625 0 34 C0 22.78 0 11.56 0 0 Z M13 11 C13 15.29 13 19.58 13 24 C17.5841963 22.54711014 17.5841963 22.54711014 19 21 C19.46649716 16.27510431 19.46649716 16.27510431 17.6875 12.0625 C15.90923892 10.73359337 15.90923892 10.73359337 13 11 Z " fill="#FBC700" transform="translate(76,0)"/>
<path d="M0 0 C4.62 0 9.24 0 14 0 C15.57262273 4.35779234 17.13902779 8.71774997 18.69970703 13.07983398 C19.23152998 14.56351941 19.76504836 16.04659825 20.30029297 17.52905273 C21.06924592 19.65972292 21.83207986 21.7924985 22.59375 23.92578125 C22.83436157 24.58838455 23.07497314 25.25098785 23.32287598 25.93367004 C24.32990715 28.77063085 25 30.96326217 25 34 C20.71 34 16.42 34 12 34 C11.67 33.01 11.34 32.02 11 31 C8.36 30.67 5.72 30.34 3 30 C2.67 31.32 2.34 32.64 2 34 C-2.29 34 -6.58 34 -11 34 C-7.37 22.78 -3.74 11.56 0 0 Z M7 14 C6.67 16.31 6.34 18.62 6 21 C6.99 21 7.98 21 9 21 C8.67 18.69 8.34 16.38 8 14 C7.67 14 7.34 14 7 14 Z " fill="#FBC800" transform="translate(117,0)"/>
<path d="M0 0 C117.15 0 234.3 0 355 0 C355 0.66 355 1.32 355 2 C237.85 2 120.7 2 0 2 C0 1.34 0 0.68 0 0 Z " fill="#FAC700" transform="translate(0,41)"/>
<path d="M0 0 C0.61875 0.33 1.2375 0.66 1.875 1 C1 7.75 1 7.75 -0.125 10 C-3.425 9.34 -6.725 8.68 -10.125 8 C-9.3312056 10.13237451 -9.3312056 10.13237451 -7.41796875 10.7109375 C-6.72316406 10.93007812 -6.02835938 11.14921875 -5.3125 11.375 C-1.70566425 12.6959955 0.75244083 13.63928131 2.875 17 C3.84383634 21.83495469 3.36432065 25.10291215 1 29.4375 C-2.60305046 33.091441 -7.15154118 33.80135593 -12.125 34 C-16.01186755 33.54653212 -19.61638129 32.75430935 -23.125 31 C-22.61292856 27.24480943 -21.9074918 24.33311475 -20.125 21 C-19.49851563 21.2165625 -18.87203125 21.433125 -18.2265625 21.65625 C-17.40929687 21.9346875 -16.59203125 22.213125 -15.75 22.5 C-14.93789062 22.7784375 -14.12578125 23.056875 -13.2890625 23.34375 C-11.18290758 24.09673305 -11.18290758 24.09673305 -9.125 24 C-9.93306356 21.81976433 -9.93306356 21.81976433 -12.0859375 21.25390625 C-13.68981003 20.7945447 -15.29397534 20.3362041 -16.8984375 19.87890625 C-19.35862419 18.90777993 -20.54553608 18.11420406 -22.125 16 C-23.10829898 12.06680407 -22.95572077 8.41065791 -20.8828125 4.890625 C-15.3623701 -1.75587779 -8.14814094 -2.6074051 0 0 Z " fill="#FBC800" transform="translate(208.125,1)"/>
<path d="M0 0 C5.28 0 10.56 0 16 0 C16 0.66 16 1.32 16 2 C14.68 2.33 13.36 2.66 12 3 C12.02287143 6.56390672 12.1002735 10.12463316 12.1875 13.6875 C12.19330078 14.69490234 12.19910156 15.70230469 12.20507812 16.74023438 C12.34727154 21.52741283 12.44788082 24.2157615 15.2578125 28.20703125 C18.20845751 30.13629914 19.26798129 30.55734091 22.6875 30 C23.45449219 29.896875 24.22148437 29.79375 25.01171875 29.6875 C27.3734371 29.09536537 27.3734371 29.09536537 29 26 C29.36696181 23.48497823 29.36696181 23.48497823 29.4140625 20.67578125 C29.45273437 19.64775391 29.49140625 18.61972656 29.53125 17.56054688 C29.57765625 15.95276367 29.57765625 15.95276367 29.625 14.3125 C29.66367187 13.22904297 29.70234375 12.14558594 29.7421875 11.02929688 C29.83650509 8.35303533 29.92210005 5.67678157 30 3 C28.68 2.34 27.36 1.68 26 1 C32.435 0.505 32.435 0.505 39 0 C39 0.66 39 1.32 39 2 C37.02 2.99 37.02 2.99 35 4 C34.9906543 4.6705542 34.98130859 5.3411084 34.97167969 6.03198242 C34.91783404 9.08455567 34.83421505 12.13561982 34.75 15.1875 C34.73582031 16.24259766 34.72164062 17.29769531 34.70703125 18.38476562 C34.46060574 26.19645417 34.46060574 26.19645417 32.2109375 30.12109375 C27.38970576 34.21828892 22.06160714 35.32394554 15.8125 34.9375 C11.2441269 34.29707386 8.50815956 32.96844271 5 30 C3.6691089 27.33821779 3.88731007 25.31260604 3.90234375 22.3359375 C3.90556641 21.21445312 3.90878906 20.09296875 3.91210938 18.9375 C3.92048828 17.761875 3.92886719 16.58625 3.9375 15.375 C3.94201172 14.19164062 3.94652344 13.00828125 3.95117188 11.7890625 C3.96298533 8.85932493 3.97945742 5.92968728 4 3 C2.68 2.67 1.36 2.34 0 2 C0 1.34 0 0.68 0 0 Z " fill="#FBC700" transform="translate(0,0)"/>
<path d="M0 0 C0.77214844 -0.00386719 1.54429688 -0.00773437 2.33984375 -0.01171875 C5.64503737 -0.00599051 8.34377498 0.07292499 11.5 1.125 C11.995 6.57 11.995 6.57 12.5 12.125 C9.11663396 9.86942264 8.89927488 8.76311468 7.5 5.125 C4.02074899 3.38537449 0.30377942 3.68407747 -3.5 4.125 C-6.79106519 5.6654986 -8.02992795 6.91840952 -9.34765625 10.30078125 C-10.94569484 16.45370829 -10.50954808 21.48642141 -7.5 27.125 C-6.27447485 28.92870706 -6.27447485 28.92870706 -4.5 30.125 C-2.12482675 30.52511499 -2.12482675 30.52511499 0.4375 30.375 C1.29214844 30.35953125 2.14679687 30.3440625 3.02734375 30.328125 C5.35104372 30.13723654 7.32167302 29.96058884 9.5 29.125 C10.8045656 26.12884054 10.8045656 26.12884054 11.5 23.125 C12.16 23.125 12.82 23.125 13.5 23.125 C13.27139942 24.58684058 13.01629608 26.04455419 12.75 27.5 C12.61078125 28.31210937 12.4715625 29.12421875 12.328125 29.9609375 C11.5 32.125 11.5 32.125 9.74609375 33.3671875 C2.72153103 35.73721388 -5.60322362 36.01594198 -12.5 33.125 C-15.74570838 30.93475694 -18.72889178 28.66721644 -20.5 25.125 C-21.43739328 13.13865965 -21.43739328 13.13865965 -18.8125 7.5 C-12.70931295 1.23186195 -8.62101847 -0.04317705 0 0 Z " fill="#FBC800" transform="translate(58.5,-0.125)"/>
<path d="M0 0 C5 0 5 0 6.58203125 1.3125 C7.72135417 2.875 8.86067708 4.4375 10 6 C10.33 4.02 10.66 2.04 11 0 C12.98 0 14.96 0 17 0 C17 5.94 17 11.88 17 18 C11 18 11 18 9.3203125 16.46875 C8.92585938 15.8190625 8.53140625 15.169375 8.125 14.5 C7.51011719 13.52546875 7.51011719 13.52546875 6.8828125 12.53125 C6.59148438 12.0259375 6.30015625 11.520625 6 11 C5.67 13.31 5.34 15.62 5 18 C3.35 18 1.7 18 0 18 C0 12.06 0 6.12 0 0 Z " fill="#FFFFFF" transform="translate(41,51)"/>
<path d="M0 0 C5 0 5 0 6.58203125 1.3125 C7.72135417 2.875 8.86067708 4.4375 10 6 C10.33 4.02 10.66 2.04 11 0 C12.98 0 14.96 0 17 0 C17 5.94 17 11.88 17 18 C11 18 11 18 9.3203125 16.46875 C8.92585938 15.8190625 8.53140625 15.169375 8.125 14.5 C7.51011719 13.52546875 7.51011719 13.52546875 6.8828125 12.53125 C6.59148437 12.0259375 6.30015625 11.520625 6 11 C5.67 13.31 5.34 15.62 5 18 C3.35 18 1.7 18 0 18 C0 12.06 0 6.12 0 0 Z " fill="#FFFFFF" transform="translate(84,51)"/>
<path d="M0 0 C11.16564417 -0.49079755 11.16564417 -0.49079755 15.1875 1.875 C17.34921479 4.40942424 17.9432946 5.48965139 18.3125 8.8125 C17.92835642 12.7307645 16.70743683 14.21293267 14 17 C11.23547967 18.38226016 8.9538637 18.09525387 5.875 18.0625 C2.966875 18.0315625 2.966875 18.0315625 0 18 C0 12.06 0 6.12 0 0 Z M6 5 C6 7.64 6 10.28 6 13 C7.66611905 13.042721 9.33382885 13.04063832 11 13 C12.34404775 11.88163776 12.34404775 11.88163776 12.125 9 C12.34404775 6.11836224 12.34404775 6.11836224 11 5 C9.33382885 4.95936168 7.66611905 4.957279 6 5 Z " fill="#FFFFFF" transform="translate(222,82)"/>
<path d="M0 0 C6 0 6 0 7.6796875 1.53125 C8.07414063 2.1809375 8.46859375 2.830625 8.875 3.5 C9.28492188 4.1496875 9.69484375 4.799375 10.1171875 5.46875 C10.55417969 6.22671875 10.55417969 6.22671875 11 7 C11.33 4.69 11.66 2.38 12 0 C13.65 0 15.3 0 17 0 C17 5.94 17 11.88 17 18 C11 18 11 18 9.3203125 16.46875 C8.92585937 15.8190625 8.53140625 15.169375 8.125 14.5 C7.51011719 13.52546875 7.51011719 13.52546875 6.8828125 12.53125 C6.59148437 12.0259375 6.30015625 11.520625 6 11 C5.67 13.31 5.34 15.62 5 18 C3.35 18 1.7 18 0 18 C0 12.06 0 6.12 0 0 Z " fill="#FFFFFF" transform="translate(148,82)"/>
<path d="M0 0 C1.2065625 0.0309375 1.2065625 0.0309375 2.4375 0.0625 C3.4275 2.7025 4.4175 5.3425 5.4375 8.0625 C5.7675 5.7525 6.0975 3.4425 6.4375 1.0625 C8.0875 0.7325 9.7375 0.4025 11.4375 0.0625 C12.0975 1.0525 12.7575 2.0425 13.4375 3.0625 C14.0975 2.0725 14.7575 1.0825 15.4375 0.0625 C16.4275 0.0625 17.4175 0.0625 18.4375 0.0625 C18.4375 4.3525 18.4375 8.6425 18.4375 13.0625 C17.1175 13.0625 15.7975 13.0625 14.4375 13.0625 C12.6875 11.0625 12.6875 11.0625 11.4375 9.0625 C11.1075 10.3825 10.7775 11.7025 10.4375 13.0625 C5.51622966 13.22932272 1.93406104 13.31078052 -2.5625 11.0625 C-2.5625 11.7225 -2.5625 12.3825 -2.5625 13.0625 C-4.2125 13.0625 -5.8625 13.0625 -7.5625 13.0625 C-6.92030498 11.08214979 -6.27364356 9.10324744 -5.625 7.125 C-5.26535156 6.02285156 -4.90570313 4.92070313 -4.53515625 3.78515625 C-3.21090441 0.07831474 -3.21090441 0.07831474 0 0 Z M-0.5625 6.0625 C-0.8925 6.7225 -1.2225 7.3825 -1.5625 8.0625 C-0.9025 8.0625 -0.2425 8.0625 0.4375 8.0625 C0.1075 7.4025 -0.2225 6.7425 -0.5625 6.0625 Z " fill="#FFFFFF" transform="translate(181.5625,55.9375)"/>
<path d="M0 0 C11.35012328 -0.49348362 11.35012328 -0.49348362 14.40234375 1.82421875 C16 4 16 4 15.8125 7.0625 C15.26084603 9.05694126 14.65437895 11.03686316 14 13 C14.87914688 15.6569191 14.87914688 15.6569191 16 18 C13.1875 18.3125 13.1875 18.3125 10 18 C8.125 15.5 8.125 15.5 7 13 C6.67 14.65 6.34 16.3 6 18 C4.02 18 2.04 18 0 18 C0 12.06 0 6.12 0 0 Z M6 5 C6 5.99 6 6.98 6 8 C7.32 7.67 8.64 7.34 10 7 C10 6.34 10 5.68 10 5 C8.68 5 7.36 5 6 5 Z " fill="#FFFFFF" transform="translate(19,82)"/>
<path d="M0 0 C0.99 0.66 1.98 1.32 3 2 C2.67 3.32 2.34 4.64 2 6 C2.66 6.33 3.32 6.66 4 7 C4.36739563 14.47037773 4.36739563 14.47037773 2.796875 16.734375 C-0.68532379 19.18705415 -4.9382779 18.61924616 -9 18 C-11.57637471 16.11484777 -12.59667428 14.80665143 -14 12 C-14.43023798 8.12785818 -14.31669086 6.47503629 -12.125 3.1875 C-8.54455912 -0.49824796 -4.96271264 -0.57980207 0 0 Z M-8 6 C-8.04080783 7.99958364 -8.04254356 10.00045254 -8 12 C-5.525 12.99 -5.525 12.99 -3 14 C-2.34 13.34 -1.68 12.68 -1 12 C-2.32 12 -3.64 12 -5 12 C-5 10.35 -5 8.7 -5 7 C-3.68 6.67 -2.36 6.34 -1 6 C-2.0595877 4.71677453 -2.0595877 4.71677453 -4.5 4.875 C-6.9404123 4.71677453 -6.9404123 4.71677453 -8 6 Z " fill="#FFFFFF" transform="translate(163,51)"/>
<path d="M0 0 C5 0 5 0 6.58203125 1.53125 C6.98808594 2.1809375 7.39414063 2.830625 7.8125 3.5 C8.23144531 4.1496875 8.65039062 4.799375 9.08203125 5.46875 C9.38496094 5.9740625 9.68789062 6.479375 10 7 C10.33 4.69 10.66 2.38 11 0 C12.65 0 14.3 0 16 0 C16 5.94 16 11.88 16 18 C11 18 11 18 9.41796875 16.46875 C9.01191406 15.8190625 8.60585937 15.169375 8.1875 14.5 C7.55908203 13.52546875 7.55908203 13.52546875 6.91796875 12.53125 C6.61503906 12.0259375 6.31210938 11.520625 6 11 C5.67 13.31 5.34 15.62 5 18 C3.35 18 1.7 18 0 18 C0 12.06 0 6.12 0 0 Z " fill="#FFFFFF" transform="translate(131,51)"/>
<path d="M0 0 C5 0 5 0 6.58203125 1.53125 C6.98808594 2.1809375 7.39414062 2.830625 7.8125 3.5 C8.23144531 4.1496875 8.65039062 4.799375 9.08203125 5.46875 C9.38496094 5.9740625 9.68789063 6.479375 10 7 C10.33 4.69 10.66 2.38 11 0 C12.65 0 14.3 0 16 0 C16 5.94 16 11.88 16 18 C11 18 11 18 9.41796875 16.46875 C9.01191406 15.8190625 8.60585938 15.169375 8.1875 14.5 C7.55908203 13.52546875 7.55908203 13.52546875 6.91796875 12.53125 C6.61503906 12.0259375 6.31210937 11.520625 6 11 C5.67 13.31 5.34 15.62 5 18 C3.35 18 1.7 18 0 18 C0 12.06 0 6.12 0 0 Z " fill="#FFFFFF" transform="translate(340,82)"/>
<path d="M0 0 C3.05067422 1.99227704 4.59426669 3.33682874 5.47265625 6.9375 C5.7595293 10.82131981 5.20766662 12.67845169 3.0625 16 C-0.50862067 18.33216044 -2.64511033 18.73957582 -6.83984375 18.48046875 C-10.50246824 17.66581629 -11.97177793 16.07504636 -14 13 C-14.51521375 8.80468804 -14.47609387 5.51865971 -12 2 C-7.96966428 -0.68689048 -4.73344002 -0.78752505 0 0 Z M-7 5 C-7.66 6.65 -8.32 8.3 -9 10 C-7.68 11.32 -6.36 12.64 -5 14 C-3.35 13.01 -1.7 12.02 0 11 C-0.37904208 7.70924004 -0.37904208 7.70924004 -2 5 C-3.66617115 4.95936168 -5.33388095 4.957279 -7 5 Z " fill="#FFFFFF" transform="translate(141,82)"/>
<path d="M0 0 C2.50160818 1.87620613 3.61945652 3.23891303 5 6 C5.48153012 10.2535161 5.44716755 12.3220363 3.0625 15.9375 C-0.51340996 18.34576589 -2.60531698 18.74519692 -6.83984375 18.4765625 C-10.54702808 17.65870267 -11.97314048 16.13836313 -14 13 C-14.69337093 10.1577522 -14.69337093 7.8422478 -14 5 C-10.45402348 -0.49054429 -6.12071882 -1.26990615 0 0 Z M-9 7 C-8.99077298 9.54713404 -8.99077298 9.54713404 -8 12 C-6.03241727 13.36020151 -6.03241727 13.36020151 -4 14 C-2.68 12.68 -1.36 11.36 0 10 C-0.66 8.35 -1.32 6.7 -2 5 C-5.95457848 4.65176193 -5.95457848 4.65176193 -9 7 Z " fill="#FFFFFF" transform="translate(50,82)"/>
<path d="M0 0 C3.03978021 0.68164768 4.80055419 2.23591662 6.93359375 4.43359375 C8.38507278 7.3365518 8.305984 9.20621154 7.93359375 12.43359375 C5.47176542 16.72193988 5.47176542 16.72193988 2.93359375 18.43359375 C-1.54644675 19.50297051 -4.9941019 18.93692028 -9.12890625 16.99609375 C-11.58399155 13.74904545 -11.79399814 11.63216443 -11.54296875 7.62890625 C-10.19637733 1.4257556 -5.75997057 -0.35931764 0 0 Z M-6.06640625 7.43359375 C-5.74441659 10.53286194 -5.74441659 10.53286194 -5.06640625 13.43359375 C-3.21915573 14.12518776 -3.21915573 14.12518776 -1.06640625 14.43359375 C-0.07640625 13.77359375 0.91359375 13.11359375 1.93359375 12.43359375 C2.26699846 9.39163948 2.26699846 9.39163948 1.93359375 6.43359375 C0.88049098 5.16356052 0.88049098 5.16356052 -1.50390625 5.24609375 C-4.233753 5.16519392 -4.233753 5.16519392 -6.06640625 7.43359375 Z " fill="#FFFFFF" transform="translate(330.06640625,81.56640625)"/>
<path d="M0 0 C3.03978021 0.68164768 4.80055419 2.23591662 6.93359375 4.43359375 C8.32353455 7.21347535 8.11847579 9.35222635 7.93359375 12.43359375 C6.72652496 15.7762458 6.01302526 16.38063941 2.93359375 18.43359375 C-1.76400659 19.26930917 -5.10515949 19.06134673 -9.12890625 16.43359375 C-11.27439115 13.11155262 -11.82249573 11.25504753 -11.54296875 7.37109375 C-10.06140989 1.34770691 -5.60712956 -0.34978313 0 0 Z M-6.06640625 7.43359375 C-5.74441659 10.53286194 -5.74441659 10.53286194 -5.06640625 13.43359375 C-3.21915573 14.12518776 -3.21915573 14.12518776 -1.06640625 14.43359375 C-0.07640625 13.77359375 0.91359375 13.11359375 1.93359375 12.43359375 C2.26699846 9.39163948 2.26699846 9.39163948 1.93359375 6.43359375 C0.88049098 5.16356052 0.88049098 5.16356052 -1.50390625 5.24609375 C-4.233753 5.16519392 -4.233753 5.16519392 -6.06640625 7.43359375 Z " fill="#FFFFFF" transform="translate(31.06640625,50.56640625)"/>
<path d="M0 0 C1.98 0 3.96 0 6 0 C6 4.29 6 8.58 6 13 C7.65 13 9.3 13 11 13 C11.33 8.71 11.66 4.42 12 0 C13.65 0 15.3 0 17 0 C17.10823773 2.24893954 17.18569645 4.49937575 17.25 6.75 C17.29640625 8.00296875 17.3428125 9.2559375 17.390625 10.546875 C17 14 17 14 15.265625 16.421875 C12.7500157 18.17412699 11.53287257 18.5415462 8.5 18.5 C7.7471875 18.5103125 6.994375 18.520625 6.21875 18.53125 C3.03815116 17.76969817 1.89984109 16.65293125 0 14 C-0.390625 10.546875 -0.390625 10.546875 -0.25 6.75 C-0.21390625 5.48671875 -0.1778125 4.2234375 -0.140625 2.921875 C-0.09421875 1.95765625 -0.0478125 0.9934375 0 0 Z " fill="#FFFFFF" transform="translate(103,51)"/>
<path d="M0 0 C4.62 0 9.24 0 14 0 C14 1.65 14 3.3 14 5 C11.36 5 8.72 5 6 5 C6 5.66 6 6.32 6 7 C8.64 7 11.28 7 14 7 C14 8.32 14 9.64 14 11 C11.36 11 8.72 11 6 11 C6 11.99 6 12.98 6 14 C8.64 14 11.28 14 14 14 C14 15.32 14 16.64 14 18 C9.38 18 4.76 18 0 18 C0 12.06 0 6.12 0 0 Z " fill="#FFFFFF" transform="translate(72,82)"/>
<path d="M0 0 C2.31 0 4.62 0 7 0 C8.00399524 2.62353518 9.00334445 5.24867795 10 7.875 C10.42925781 8.99455078 10.42925781 8.99455078 10.8671875 10.13671875 C13 15.7734375 13 15.7734375 13 18 C11.02 18 9.04 18 7 18 C7 17.34 7 16.68 7 16 C2.65815798 16.18464366 2.65815798 16.18464366 -1 18 C-2.66617115 18.04063832 -4.33388095 18.042721 -6 18 C-5.41347648 13.51006131 -4.2356462 9.77456816 -2.4375 5.625 C-1.98246094 4.56539063 -1.52742187 3.50578125 -1.05859375 2.4140625 C-0.70925781 1.61742188 -0.35992187 0.82078125 0 0 Z M3 6 C2.67 7.65 2.34 9.3 2 11 C2.99 11 3.98 11 5 11 C4.67 9.35 4.34 7.7 4 6 C3.67 6 3.34 6 3 6 Z " fill="#FFFFFF" transform="translate(172,82)"/>
<path d="M0 0 C1.4540625 0.0309375 1.4540625 0.0309375 2.9375 0.0625 C3.73191072 1.93633903 4.52289974 3.81162886 5.3125 5.6875 C5.75335938 6.73164062 6.19421875 7.77578125 6.6484375 8.8515625 C7.86886322 11.89153202 8.9356391 14.94455905 9.9375 18.0625 C7.93795254 18.10504356 5.93708364 18.10330783 3.9375 18.0625 C3.6075 17.7325 3.2775 17.4025 2.9375 17.0625 C0.60932036 16.69489269 -1.7243385 16.36008419 -4.0625 16.0625 C-4.0625 16.7225 -4.0625 17.3825 -4.0625 18.0625 C-6.0425 18.0625 -8.0225 18.0625 -10.0625 18.0625 C-9.08679039 15.24875639 -8.10711694 12.4365064 -7.125 9.625 C-6.84720703 8.82255859 -6.56941406 8.02011719 -6.28320312 7.19335938 C-6.01572266 6.42958984 -5.74824219 5.66582031 -5.47265625 4.87890625 C-5.22652588 4.17193604 -4.98039551 3.46496582 -4.72680664 2.73657227 C-3.57182958 -0.17400389 -3.3666556 0.06870726 0 0 Z M-1.0625 7.0625 C-1.3925 8.3825 -1.7225 9.7025 -2.0625 11.0625 C-0.7425 10.7325 0.5775 10.4025 1.9375 10.0625 C1.6075 9.0725 1.2775 8.0825 0.9375 7.0625 C0.2775 7.0625 -0.3825 7.0625 -1.0625 7.0625 Z " fill="#FFFFFF" transform="translate(287.0625,81.9375)"/>
<path d="M0 0 C2.58889246 0.52059251 3.49810201 1.42999826 5.15625 3.43359375 C4.16625 4.91859375 4.16625 4.91859375 3.15625 6.43359375 C0.18625 5.93859375 0.18625 5.93859375 -2.84375 5.43359375 C-0.20375 6.75359375 2.43625 8.07359375 5.15625 9.43359375 C5.52288434 14.93310878 5.52288434 14.93310878 3.92578125 17.11328125 C1.68833485 18.78272249 0.42297326 18.80603942 -2.34375 18.74609375 C-3.1171875 18.74222656 -3.890625 18.73835938 -4.6875 18.734375 C-6.84375 18.43359375 -6.84375 18.43359375 -9.84375 16.43359375 C-9.51375 15.11359375 -9.18375 13.79359375 -8.84375 12.43359375 C-6.20375 12.76359375 -3.56375 13.09359375 -0.84375 13.43359375 C-1.40964844 13.20285156 -1.97554688 12.97210938 -2.55859375 12.734375 C-8.53895414 10.07526924 -8.53895414 10.07526924 -10.03125 6.93359375 C-9.84375 4.43359375 -9.84375 4.43359375 -8.96875 2.12109375 C-6.01707538 -0.22288315 -3.6779082 -0.00612985 0 0 Z " fill="#FFFFFF" transform="translate(112.84375,81.56640625)"/>
<path d="M0 0 C2.58889246 0.52059251 3.49810201 1.42999826 5.15625 3.43359375 C4.16625 4.91859375 4.16625 4.91859375 3.15625 6.43359375 C0.18625 5.93859375 0.18625 5.93859375 -2.84375 5.43359375 C-0.20375 6.75359375 2.43625 8.07359375 5.15625 9.43359375 C5.52288434 14.93310878 5.52288434 14.93310878 3.92578125 17.11328125 C1.68833485 18.78272249 0.42297326 18.80603942 -2.34375 18.74609375 C-3.1171875 18.74222656 -3.890625 18.73835938 -4.6875 18.734375 C-6.84375 18.43359375 -6.84375 18.43359375 -9.84375 16.43359375 C-9.51375 15.11359375 -9.18375 13.79359375 -8.84375 12.43359375 C-6.20375 12.76359375 -3.56375 13.09359375 -0.84375 13.43359375 C-1.40964844 13.20285156 -1.97554688 12.97210938 -2.55859375 12.734375 C-8.53895414 10.07526924 -8.53895414 10.07526924 -10.03125 6.93359375 C-9.84375 4.43359375 -9.84375 4.43359375 -8.96875 2.12109375 C-6.01707538 -0.22288315 -3.6779082 -0.00612985 0 0 Z " fill="#FFFFFF" transform="translate(96.84375,81.56640625)"/>
<path d="M0 0 C11.34980586 -0.49346982 11.34980586 -0.49346982 14.3984375 1.8203125 C16 4 16 4 15.875 7.125 C15 10 15 10 13 12 C9.375 12.125 9.375 12.125 6 12 C6 13.98 6 15.96 6 18 C4.02 18 2.04 18 0 18 C0 12.06 0 6.12 0 0 Z M6 5 C6 5.99 6 6.98 6 8 C7.32 7.67 8.64 7.34 10 7 C10 6.34 10 5.68 10 5 C8.68 5 7.36 5 6 5 Z " fill="#FFFFFF" transform="translate(2,82)"/>
<path d="M0 0 C1.65 0 3.3 0 5 0 C5.33 3.96 5.66 7.92 6 12 C7.65 12.33 9.3 12.66 11 13 C11 8.71 11 4.42 11 0 C12.65 0 14.3 0 16 0 C16.0809723 2.43816585 16.14046972 4.87364384 16.1875 7.3125 C16.21263672 8.00279297 16.23777344 8.69308594 16.26367188 9.40429688 C16.3055568 12.29435657 16.33524198 14.4529113 14.80078125 16.95703125 C12.42434337 18.33340634 10.73757717 18.39944265 8 18.375 C7.13375 18.38273437 6.2675 18.39046875 5.375 18.3984375 C3 18 3 18 1.19921875 16.95703125 C-0.67115702 13.90472422 -0.31351008 10.77293061 -0.1875 7.3125 C-0.17396484 6.61060547 -0.16042969 5.90871094 -0.14648438 5.18554688 C-0.11120182 3.45670171 -0.05739583 1.72825235 0 0 Z " fill="#FFFFFF" transform="translate(242,82)"/>
<path d="M0 0 C4.29 0 8.58 0 13 0 C13 1.65 13 3.3 13 5 C10.36 5 7.72 5 5 5 C5 5.66 5 6.32 5 7 C7.64 7 10.28 7 13 7 C13 8.32 13 9.64 13 11 C10.36 11 7.72 11 5 11 C5 11.99 5 12.98 5 14 C7.64 14 10.28 14 13 14 C13 15.32 13 16.64 13 18 C8.71 18 4.42 18 0 18 C0 12.06 0 6.12 0 0 Z " fill="#FFFFFF" transform="translate(207,82)"/>
<path d="M0 0 C2.5 2 2.5 2 4 4 C3 5.5625 3 5.5625 1 7 C-1.76614782 6.96726452 -4.26030547 6.49404328 -7 6 C-7 7.98 -7 9.96 -7 12 C-4.39417629 12.93065133 -3.35801776 13.14917407 -0.75 12.0625 C-0.1725 11.711875 0.405 11.36125 1 11 C1.99 11.99 2.98 12.98 4 14 C2.26044641 16.42024847 0.85700545 17.80493533 -2.09375 18.4765625 C-5.35612525 18.6831796 -7.9000548 18.68032728 -10.73046875 16.9296875 C-12.73620372 14.87338778 -13.89891628 12.82446406 -14.25 9.9609375 C-14.02833441 6.26189291 -13.32065244 4.38866962 -10.9375 1.5 C-6.83194999 -0.59645107 -4.59267166 -0.5831964 0 0 Z " fill="#FFFFFF" transform="translate(274,82)"/>
<path d="M0 0 C2.5 2 2.5 2 4 4 C3 5.625 3 5.625 1 7 C-1.8158905 6.65009645 -4.2716858 5.84980278 -7 5 C-7 7.31 -7 9.62 -7 12 C-4.03 12.495 -4.03 12.495 -1 13 C-1 12.34 -1 11.68 -1 11 C1.475 11.99 1.475 11.99 4 13 C2.25 16.875 2.25 16.875 0 18 C-4.25392777 18.50094516 -7.80486114 18.74696179 -11.5 16.4375 C-13.50133412 13.18533206 -13.93311096 10.81267501 -14 7 C-11.16572219 0.62287492 -6.78736777 -1.1744741 0 0 Z " fill="#FFFFFF" transform="translate(15,51)"/>
<path d="M0 0 C4.29 0 8.58 0 13 0 C13 1.65 13 3.3 13 5 C10.36 5 7.72 5 5 5 C5 5.66 5 6.32 5 7 C7.64 7 10.28 7 13 7 C13 8.32 13 9.64 13 11 C10.36 11 7.72 11 5 11 C5 13.31 5 15.62 5 18 C3.35 18 1.7 18 0 18 C0 12.06 0 6.12 0 0 Z " fill="#FFFFFF" transform="translate(57,82)"/>
<path d="M0 0 C4.95 0 9.9 0 15 0 C15 1.65 15 3.3 15 5 C13.35 5 11.7 5 10 5 C10 9.29 10 13.58 10 18 C8.35 18 6.7 18 5 18 C5 13.71 5 9.42 5 5 C3.35 5 1.7 5 0 5 C0 3.35 0 1.7 0 0 Z " fill="#FFFFFF" transform="translate(295,82)"/>
<path d="M0 0 C4.95 0 9.9 0 15 0 C15 1.65 15 3.3 15 5 C13.35 5 11.7 5 10 5 C10 9.29 10 13.58 10 18 C8.35 18 6.7 18 5 18 C5 13.71 5 9.42 5 5 C3.35 5 1.7 5 0 5 C0 3.35 0 1.7 0 0 Z " fill="#FFFFFF" transform="translate(59,51)"/>
<path d="M0 0 C1.65 0 3.3 0 5 0 C5 4.29 5 8.58 5 13 C7.31 13 9.62 13 12 13 C12 14.65 12 16.3 12 18 C8.04 18 4.08 18 0 18 C0 12.06 0 6.12 0 0 Z " fill="#FFFFFF" transform="translate(186,82)"/>
<path d="M0 0 C7.15789474 -0.35789474 7.15789474 -0.35789474 10.5 1.0625 C12.81346701 4.05072823 12.4568702 6.34503841 12 10 C10.765625 11.70703125 10.765625 11.70703125 9 13 C6.73828125 13.29296875 6.73828125 13.29296875 4.3125 13.1875 C2.889375 13.125625 1.46625 13.06375 0 13 C0 8.71 0 4.42 0 0 Z M4 4 C4 5.98 4 7.96 4 10 C5.32 9.67 6.64 9.34 8 9 C7.67 7.35 7.34 5.7 7 4 C6.01 4 5.02 4 4 4 Z " fill="#FFFFFF" transform="translate(202,56)"/>
<path d="M0 0 C1.98 0 3.96 0 6 0 C6 5.94 6 11.88 6 18 C4.02 18 2.04 18 0 18 C0 12.06 0 6.12 0 0 Z " fill="#FFFFFF" transform="translate(311,82)"/>
<path d="M0 0 C1.65 0 3.3 0 5 0 C5 5.94 5 11.88 5 18 C3.35 18 1.7 18 0 18 C0 12.06 0 6.12 0 0 Z " fill="#FFFFFF" transform="translate(120,82)"/>
<path d="M0 0 C1.65 0 3.3 0 5 0 C5 5.94 5 11.88 5 18 C3.35 18 1.7 18 0 18 C0 12.06 0 6.12 0 0 Z " fill="#FFFFFF" transform="translate(123,51)"/>
<path d="M0 0 C1.65 0 3.3 0 5 0 C5 5.94 5 11.88 5 18 C3.35 18 1.7 18 0 18 C0 12.06 0 6.12 0 0 Z " fill="#FFFFFF" transform="translate(76,51)"/>
</svg>
